<mxfile host="app.diagrams.net" modified="2024-05-15T14:13:37.087Z" agent="Mozilla/5.0 (Windows NT 10.0; Win64; x64) AppleWebKit/537.36 (KHTML, like Gecko) Chrome/124.0.0.0 Safari/537.36" etag="vL91mDCobUN04twuCL9D" version="24.2.1" type="device">
  <diagram id="C5RBs43oDa-KdzZeNtuy" name="Page-1">
    <mxGraphModel dx="1400" dy="743" grid="1" gridSize="10" guides="1" tooltips="1" connect="1" arrows="1" fold="1" page="1" pageScale="1" pageWidth="3300" pageHeight="4681" math="0" shadow="0">
      <root>
        <mxCell id="WIyWlLk6GJQsqaUBKTNV-0" />
        <mxCell id="WIyWlLk6GJQsqaUBKTNV-1" parent="WIyWlLk6GJQsqaUBKTNV-0" />
        <mxCell id="gx_fRitQp8oqiLDrhO29-1" value="" style="shape=cube;whiteSpace=wrap;html=1;boundedLbl=1;backgroundOutline=1;darkOpacity=0.05;darkOpacity2=0.1;size=10;" vertex="1" parent="WIyWlLk6GJQsqaUBKTNV-1">
          <mxGeometry x="730" y="1440" width="1460" height="950" as="geometry" />
        </mxCell>
        <mxCell id="gx_fRitQp8oqiLDrhO29-2" value="&lt;h1&gt;&lt;font face=&quot;Verdana&quot; size=&quot;1&quot; style=&quot;&quot;&gt;&lt;u style=&quot;font-size: 40px;&quot;&gt;Business Layer&lt;/u&gt;&lt;/font&gt;&lt;/h1&gt;" style="text;html=1;align=center;verticalAlign=middle;whiteSpace=wrap;rounded=0;" vertex="1" parent="WIyWlLk6GJQsqaUBKTNV-1">
          <mxGeometry x="790" y="1490" width="380" height="40" as="geometry" />
        </mxCell>
        <mxCell id="gx_fRitQp8oqiLDrhO29-7" value="Product" style="swimlane;fontStyle=2;align=center;verticalAlign=top;childLayout=stackLayout;horizontal=1;startSize=26;horizontalStack=0;resizeParent=1;resizeLast=0;collapsible=1;marginBottom=0;rounded=0;shadow=0;strokeWidth=1;" vertex="1" parent="WIyWlLk6GJQsqaUBKTNV-1">
          <mxGeometry x="1710" y="1890" width="160" height="242" as="geometry">
            <mxRectangle x="230" y="140" width="160" height="26" as="alternateBounds" />
          </mxGeometry>
        </mxCell>
        <mxCell id="gx_fRitQp8oqiLDrhO29-8" value="productName: string" style="text;align=left;verticalAlign=top;spacingLeft=4;spacingRight=4;overflow=hidden;rotatable=0;points=[[0,0.5],[1,0.5]];portConstraint=eastwest;" vertex="1" parent="gx_fRitQp8oqiLDrhO29-7">
          <mxGeometry y="26" width="160" height="26" as="geometry" />
        </mxCell>
        <mxCell id="gx_fRitQp8oqiLDrhO29-45" value="category: string" style="text;align=left;verticalAlign=top;spacingLeft=4;spacingRight=4;overflow=hidden;rotatable=0;points=[[0,0.5],[1,0.5]];portConstraint=eastwest;" vertex="1" parent="gx_fRitQp8oqiLDrhO29-7">
          <mxGeometry y="52" width="160" height="26" as="geometry" />
        </mxCell>
        <mxCell id="gx_fRitQp8oqiLDrhO29-46" value="subCategory: string" style="text;align=left;verticalAlign=top;spacingLeft=4;spacingRight=4;overflow=hidden;rotatable=0;points=[[0,0.5],[1,0.5]];portConstraint=eastwest;" vertex="1" parent="gx_fRitQp8oqiLDrhO29-7">
          <mxGeometry y="78" width="160" height="26" as="geometry" />
        </mxCell>
        <mxCell id="gx_fRitQp8oqiLDrhO29-10" value="supplierName: int&#xa;" style="text;align=left;verticalAlign=top;spacingLeft=4;spacingRight=4;overflow=hidden;rotatable=0;points=[[0,0.5],[1,0.5]];portConstraint=eastwest;rounded=0;shadow=0;html=0;" vertex="1" parent="gx_fRitQp8oqiLDrhO29-7">
          <mxGeometry y="104" width="160" height="26" as="geometry" />
        </mxCell>
        <mxCell id="gx_fRitQp8oqiLDrhO29-13" value="items: List&lt;Item&gt;" style="text;align=left;verticalAlign=top;spacingLeft=4;spacingRight=4;overflow=hidden;rotatable=0;points=[[0,0.5],[1,0.5]];portConstraint=eastwest;rounded=0;shadow=0;html=0;" vertex="1" parent="gx_fRitQp8oqiLDrhO29-7">
          <mxGeometry y="130" width="160" height="26" as="geometry" />
        </mxCell>
        <mxCell id="gx_fRitQp8oqiLDrhO29-41" value="size: double" style="text;align=left;verticalAlign=top;spacingLeft=4;spacingRight=4;overflow=hidden;rotatable=0;points=[[0,0.5],[1,0.5]];portConstraint=eastwest;rounded=0;shadow=0;html=0;" vertex="1" parent="gx_fRitQp8oqiLDrhO29-7">
          <mxGeometry y="156" width="160" height="26" as="geometry" />
        </mxCell>
        <mxCell id="gx_fRitQp8oqiLDrhO29-52" value="discount: double" style="text;align=left;verticalAlign=top;spacingLeft=4;spacingRight=4;overflow=hidden;rotatable=0;points=[[0,0.5],[1,0.5]];portConstraint=eastwest;rounded=0;shadow=0;html=0;" vertex="1" parent="gx_fRitQp8oqiLDrhO29-7">
          <mxGeometry y="182" width="160" height="26" as="geometry" />
        </mxCell>
        <mxCell id="gx_fRitQp8oqiLDrhO29-11" value="" style="line;html=1;strokeWidth=1;align=left;verticalAlign=middle;spacingTop=-1;spacingLeft=3;spacingRight=3;rotatable=0;labelPosition=right;points=[];portConstraint=eastwest;" vertex="1" parent="gx_fRitQp8oqiLDrhO29-7">
          <mxGeometry y="208" width="160" height="8" as="geometry" />
        </mxCell>
        <mxCell id="gx_fRitQp8oqiLDrhO29-116" value="Product functions..." style="text;align=left;verticalAlign=top;spacingLeft=4;spacingRight=4;overflow=hidden;rotatable=0;points=[[0,0.5],[1,0.5]];portConstraint=eastwest;rounded=0;shadow=0;html=0;" vertex="1" parent="gx_fRitQp8oqiLDrhO29-7">
          <mxGeometry y="216" width="160" height="26" as="geometry" />
        </mxCell>
        <mxCell id="gx_fRitQp8oqiLDrhO29-66" style="edgeStyle=orthogonalEdgeStyle;rounded=0;orthogonalLoop=1;jettySize=auto;html=1;exitX=0.75;exitY=0;exitDx=0;exitDy=0;entryX=0;entryY=0.5;entryDx=0;entryDy=0;" edge="1" parent="WIyWlLk6GJQsqaUBKTNV-1" source="gx_fRitQp8oqiLDrhO29-17" target="gx_fRitQp8oqiLDrhO29-29">
          <mxGeometry relative="1" as="geometry" />
        </mxCell>
        <mxCell id="gx_fRitQp8oqiLDrhO29-17" value="Category" style="swimlane;fontStyle=2;align=center;verticalAlign=top;childLayout=stackLayout;horizontal=1;startSize=26;horizontalStack=0;resizeParent=1;resizeLast=0;collapsible=1;marginBottom=0;rounded=0;shadow=0;strokeWidth=1;" vertex="1" parent="WIyWlLk6GJQsqaUBKTNV-1">
          <mxGeometry x="1130" y="2016" width="395" height="164" as="geometry">
            <mxRectangle x="230" y="140" width="160" height="26" as="alternateBounds" />
          </mxGeometry>
        </mxCell>
        <mxCell id="gx_fRitQp8oqiLDrhO29-20" value="subCategories: HashMap&lt;subCatName:string ,Â  subCat: SubCategory&gt;" style="text;align=left;verticalAlign=top;spacingLeft=4;spacingRight=4;overflow=hidden;rotatable=0;points=[[0,0.5],[1,0.5]];portConstraint=eastwest;rounded=0;shadow=0;html=0;" vertex="1" parent="gx_fRitQp8oqiLDrhO29-17">
          <mxGeometry y="26" width="395" height="26" as="geometry" />
        </mxCell>
        <mxCell id="gx_fRitQp8oqiLDrhO29-21" value="" style="line;html=1;strokeWidth=1;align=left;verticalAlign=middle;spacingTop=-1;spacingLeft=3;spacingRight=3;rotatable=0;labelPosition=right;points=[];portConstraint=eastwest;" vertex="1" parent="gx_fRitQp8oqiLDrhO29-17">
          <mxGeometry y="52" width="395" height="8" as="geometry" />
        </mxCell>
        <mxCell id="gx_fRitQp8oqiLDrhO29-115" value="Categories functions..." style="text;align=left;verticalAlign=top;spacingLeft=4;spacingRight=4;overflow=hidden;rotatable=0;points=[[0,0.5],[1,0.5]];portConstraint=eastwest;rounded=0;shadow=0;html=0;" vertex="1" parent="gx_fRitQp8oqiLDrhO29-17">
          <mxGeometry y="60" width="395" height="26" as="geometry" />
        </mxCell>
        <mxCell id="gx_fRitQp8oqiLDrhO29-23" value="Item" style="swimlane;fontStyle=2;align=center;verticalAlign=top;childLayout=stackLayout;horizontal=1;startSize=26;horizontalStack=0;resizeParent=1;resizeLast=0;collapsible=1;marginBottom=0;rounded=0;shadow=0;strokeWidth=1;" vertex="1" parent="WIyWlLk6GJQsqaUBKTNV-1">
          <mxGeometry x="1950" y="2070" width="160" height="216" as="geometry">
            <mxRectangle x="230" y="140" width="160" height="26" as="alternateBounds" />
          </mxGeometry>
        </mxCell>
        <mxCell id="gx_fRitQp8oqiLDrhO29-47" value="id: int" style="text;align=left;verticalAlign=top;spacingLeft=4;spacingRight=4;overflow=hidden;rotatable=0;points=[[0,0.5],[1,0.5]];portConstraint=eastwest;rounded=0;shadow=0;html=0;" vertex="1" parent="gx_fRitQp8oqiLDrhO29-23">
          <mxGeometry y="26" width="160" height="26" as="geometry" />
        </mxCell>
        <mxCell id="gx_fRitQp8oqiLDrhO29-24" value="expData: time" style="text;align=left;verticalAlign=top;spacingLeft=4;spacingRight=4;overflow=hidden;rotatable=0;points=[[0,0.5],[1,0.5]];portConstraint=eastwest;" vertex="1" parent="gx_fRitQp8oqiLDrhO29-23">
          <mxGeometry y="52" width="160" height="26" as="geometry" />
        </mxCell>
        <mxCell id="gx_fRitQp8oqiLDrhO29-9" value="location: string" style="text;align=left;verticalAlign=top;spacingLeft=4;spacingRight=4;overflow=hidden;rotatable=0;points=[[0,0.5],[1,0.5]];portConstraint=eastwest;rounded=0;shadow=0;html=0;" vertex="1" parent="gx_fRitQp8oqiLDrhO29-23">
          <mxGeometry y="78" width="160" height="26" as="geometry" />
        </mxCell>
        <mxCell id="gx_fRitQp8oqiLDrhO29-49" value="damage: boolean" style="text;align=left;verticalAlign=top;spacingLeft=4;spacingRight=4;overflow=hidden;rotatable=0;points=[[0,0.5],[1,0.5]];portConstraint=eastwest;rounded=0;shadow=0;html=0;" vertex="1" parent="gx_fRitQp8oqiLDrhO29-23">
          <mxGeometry y="104" width="160" height="26" as="geometry" />
        </mxCell>
        <mxCell id="gx_fRitQp8oqiLDrhO29-50" value="supPrice: double" style="text;align=left;verticalAlign=top;spacingLeft=4;spacingRight=4;overflow=hidden;rotatable=0;points=[[0,0.5],[1,0.5]];portConstraint=eastwest;rounded=0;shadow=0;html=0;" vertex="1" parent="gx_fRitQp8oqiLDrhO29-23">
          <mxGeometry y="130" width="160" height="26" as="geometry" />
        </mxCell>
        <mxCell id="gx_fRitQp8oqiLDrhO29-51" value="price: double" style="text;align=left;verticalAlign=top;spacingLeft=4;spacingRight=4;overflow=hidden;rotatable=0;points=[[0,0.5],[1,0.5]];portConstraint=eastwest;rounded=0;shadow=0;html=0;" vertex="1" parent="gx_fRitQp8oqiLDrhO29-23">
          <mxGeometry y="156" width="160" height="26" as="geometry" />
        </mxCell>
        <mxCell id="gx_fRitQp8oqiLDrhO29-27" value="" style="line;html=1;strokeWidth=1;align=left;verticalAlign=middle;spacingTop=-1;spacingLeft=3;spacingRight=3;rotatable=0;labelPosition=right;points=[];portConstraint=eastwest;" vertex="1" parent="gx_fRitQp8oqiLDrhO29-23">
          <mxGeometry y="182" width="160" height="8" as="geometry" />
        </mxCell>
        <mxCell id="gx_fRitQp8oqiLDrhO29-120" value="Item functions..." style="text;align=left;verticalAlign=top;spacingLeft=4;spacingRight=4;overflow=hidden;rotatable=0;points=[[0,0.5],[1,0.5]];portConstraint=eastwest;rounded=0;shadow=0;html=0;" vertex="1" parent="gx_fRitQp8oqiLDrhO29-23">
          <mxGeometry y="190" width="160" height="26" as="geometry" />
        </mxCell>
        <mxCell id="gx_fRitQp8oqiLDrhO29-64" style="edgeStyle=orthogonalEdgeStyle;rounded=0;orthogonalLoop=1;jettySize=auto;html=1;exitX=0.5;exitY=1;exitDx=0;exitDy=0;entryX=0.5;entryY=0;entryDx=0;entryDy=0;" edge="1" parent="WIyWlLk6GJQsqaUBKTNV-1" source="gx_fRitQp8oqiLDrhO29-29" target="gx_fRitQp8oqiLDrhO29-7">
          <mxGeometry relative="1" as="geometry" />
        </mxCell>
        <mxCell id="gx_fRitQp8oqiLDrhO29-29" value="SubCategory" style="swimlane;fontStyle=2;align=center;verticalAlign=top;childLayout=stackLayout;horizontal=1;startSize=26;horizontalStack=0;resizeParent=1;resizeLast=0;collapsible=1;marginBottom=0;rounded=0;shadow=0;strokeWidth=1;" vertex="1" parent="WIyWlLk6GJQsqaUBKTNV-1">
          <mxGeometry x="1560" y="1650" width="342.5" height="164" as="geometry">
            <mxRectangle x="230" y="140" width="160" height="26" as="alternateBounds" />
          </mxGeometry>
        </mxCell>
        <mxCell id="gx_fRitQp8oqiLDrhO29-30" value="products: HashMap&lt;ProductName:string ,Â  product: Product&gt;" style="text;align=left;verticalAlign=top;spacingLeft=4;spacingRight=4;overflow=hidden;rotatable=0;points=[[0,0.5],[1,0.5]];portConstraint=eastwest;rounded=0;shadow=0;html=0;" vertex="1" parent="gx_fRitQp8oqiLDrhO29-29">
          <mxGeometry y="26" width="342.5" height="26" as="geometry" />
        </mxCell>
        <mxCell id="gx_fRitQp8oqiLDrhO29-32" value="" style="line;html=1;strokeWidth=1;align=left;verticalAlign=middle;spacingTop=-1;spacingLeft=3;spacingRight=3;rotatable=0;labelPosition=right;points=[];portConstraint=eastwest;" vertex="1" parent="gx_fRitQp8oqiLDrhO29-29">
          <mxGeometry y="52" width="342.5" height="8" as="geometry" />
        </mxCell>
        <mxCell id="gx_fRitQp8oqiLDrhO29-121" value="Subcategory functions..." style="text;align=left;verticalAlign=top;spacingLeft=4;spacingRight=4;overflow=hidden;rotatable=0;points=[[0,0.5],[1,0.5]];portConstraint=eastwest;rounded=0;shadow=0;html=0;" vertex="1" parent="gx_fRitQp8oqiLDrhO29-29">
          <mxGeometry y="60" width="342.5" height="26" as="geometry" />
        </mxCell>
        <mxCell id="gx_fRitQp8oqiLDrhO29-44" style="edgeStyle=orthogonalEdgeStyle;rounded=0;orthogonalLoop=1;jettySize=auto;html=1;exitX=1;exitY=0.5;exitDx=0;exitDy=0;entryX=0;entryY=0.75;entryDx=0;entryDy=0;" edge="1" parent="WIyWlLk6GJQsqaUBKTNV-1" source="gx_fRitQp8oqiLDrhO29-41" target="gx_fRitQp8oqiLDrhO29-23">
          <mxGeometry relative="1" as="geometry" />
        </mxCell>
        <mxCell id="gx_fRitQp8oqiLDrhO29-67" style="edgeStyle=orthogonalEdgeStyle;rounded=0;orthogonalLoop=1;jettySize=auto;html=1;exitX=0.5;exitY=1;exitDx=0;exitDy=0;entryX=0.25;entryY=0;entryDx=0;entryDy=0;" edge="1" parent="WIyWlLk6GJQsqaUBKTNV-1" source="gx_fRitQp8oqiLDrhO29-54" target="gx_fRitQp8oqiLDrhO29-17">
          <mxGeometry relative="1" as="geometry" />
        </mxCell>
        <mxCell id="gx_fRitQp8oqiLDrhO29-54" value="Storage" style="swimlane;fontStyle=2;align=center;verticalAlign=top;childLayout=stackLayout;horizontal=1;startSize=26;horizontalStack=0;resizeParent=1;resizeLast=0;collapsible=1;marginBottom=0;rounded=0;shadow=0;strokeWidth=1;" vertex="1" parent="WIyWlLk6GJQsqaUBKTNV-1">
          <mxGeometry x="940" y="1790" width="395" height="164" as="geometry">
            <mxRectangle x="230" y="140" width="160" height="26" as="alternateBounds" />
          </mxGeometry>
        </mxCell>
        <mxCell id="gx_fRitQp8oqiLDrhO29-55" value="storeName: string" style="text;align=left;verticalAlign=top;spacingLeft=4;spacingRight=4;overflow=hidden;rotatable=0;points=[[0,0.5],[1,0.5]];portConstraint=eastwest;rounded=0;shadow=0;html=0;" vertex="1" parent="gx_fRitQp8oqiLDrhO29-54">
          <mxGeometry y="26" width="395" height="26" as="geometry" />
        </mxCell>
        <mxCell id="gx_fRitQp8oqiLDrhO29-58" value="categories: HashMap&lt;categoryName:string ,Â  category: Category&gt;" style="text;align=left;verticalAlign=top;spacingLeft=4;spacingRight=4;overflow=hidden;rotatable=0;points=[[0,0.5],[1,0.5]];portConstraint=eastwest;rounded=0;shadow=0;html=0;" vertex="1" parent="gx_fRitQp8oqiLDrhO29-54">
          <mxGeometry y="52" width="395" height="26" as="geometry" />
        </mxCell>
        <mxCell id="gx_fRitQp8oqiLDrhO29-56" value="" style="line;html=1;strokeWidth=1;align=left;verticalAlign=middle;spacingTop=-1;spacingLeft=3;spacingRight=3;rotatable=0;labelPosition=right;points=[];portConstraint=eastwest;" vertex="1" parent="gx_fRitQp8oqiLDrhO29-54">
          <mxGeometry y="78" width="395" height="8" as="geometry" />
        </mxCell>
        <mxCell id="gx_fRitQp8oqiLDrhO29-113" value="Storage functions..." style="text;align=left;verticalAlign=top;spacingLeft=4;spacingRight=4;overflow=hidden;rotatable=0;points=[[0,0.5],[1,0.5]];portConstraint=eastwest;rounded=0;shadow=0;html=0;" vertex="1" parent="gx_fRitQp8oqiLDrhO29-54">
          <mxGeometry y="86" width="395" height="26" as="geometry" />
        </mxCell>
        <mxCell id="gx_fRitQp8oqiLDrhO29-68" style="edgeStyle=orthogonalEdgeStyle;rounded=0;orthogonalLoop=1;jettySize=auto;html=1;exitX=0.5;exitY=1;exitDx=0;exitDy=0;entryX=0.5;entryY=0;entryDx=0;entryDy=0;" edge="1" parent="WIyWlLk6GJQsqaUBKTNV-1" source="gx_fRitQp8oqiLDrhO29-60" target="gx_fRitQp8oqiLDrhO29-54">
          <mxGeometry relative="1" as="geometry" />
        </mxCell>
        <mxCell id="gx_fRitQp8oqiLDrhO29-60" value="StorageFacade" style="swimlane;fontStyle=2;align=center;verticalAlign=top;childLayout=stackLayout;horizontal=1;startSize=26;horizontalStack=0;resizeParent=1;resizeLast=0;collapsible=1;marginBottom=0;rounded=0;shadow=0;strokeWidth=1;" vertex="1" parent="WIyWlLk6GJQsqaUBKTNV-1">
          <mxGeometry x="810" y="1570" width="395" height="164" as="geometry">
            <mxRectangle x="230" y="140" width="160" height="26" as="alternateBounds" />
          </mxGeometry>
        </mxCell>
        <mxCell id="gx_fRitQp8oqiLDrhO29-62" value="storages: HashMap&lt;name: string, storage: Storage&gt;" style="text;align=left;verticalAlign=top;spacingLeft=4;spacingRight=4;overflow=hidden;rotatable=0;points=[[0,0.5],[1,0.5]];portConstraint=eastwest;rounded=0;shadow=0;html=0;" vertex="1" parent="gx_fRitQp8oqiLDrhO29-60">
          <mxGeometry y="26" width="395" height="26" as="geometry" />
        </mxCell>
        <mxCell id="gx_fRitQp8oqiLDrhO29-63" value="" style="line;html=1;strokeWidth=1;align=left;verticalAlign=middle;spacingTop=-1;spacingLeft=3;spacingRight=3;rotatable=0;labelPosition=right;points=[];portConstraint=eastwest;" vertex="1" parent="gx_fRitQp8oqiLDrhO29-60">
          <mxGeometry y="52" width="395" height="8" as="geometry" />
        </mxCell>
        <mxCell id="gx_fRitQp8oqiLDrhO29-114" value="handeling storages functions" style="text;align=left;verticalAlign=top;spacingLeft=4;spacingRight=4;overflow=hidden;rotatable=0;points=[[0,0.5],[1,0.5]];portConstraint=eastwest;rounded=0;shadow=0;html=0;" vertex="1" parent="gx_fRitQp8oqiLDrhO29-60">
          <mxGeometry y="60" width="395" height="26" as="geometry" />
        </mxCell>
        <mxCell id="gx_fRitQp8oqiLDrhO29-69" value="" style="shape=cube;whiteSpace=wrap;html=1;boundedLbl=1;backgroundOutline=1;darkOpacity=0.05;darkOpacity2=0.1;size=10;" vertex="1" parent="WIyWlLk6GJQsqaUBKTNV-1">
          <mxGeometry x="500" y="760" width="1080" height="530" as="geometry" />
        </mxCell>
        <mxCell id="gx_fRitQp8oqiLDrhO29-70" value="&lt;h1&gt;&lt;font face=&quot;Verdana&quot; size=&quot;1&quot; style=&quot;&quot;&gt;&lt;u style=&quot;font-size: 40px;&quot;&gt;Service Layer&lt;/u&gt;&lt;/font&gt;&lt;/h1&gt;" style="text;html=1;align=center;verticalAlign=middle;whiteSpace=wrap;rounded=0;" vertex="1" parent="WIyWlLk6GJQsqaUBKTNV-1">
          <mxGeometry x="560" y="810" width="380" height="40" as="geometry" />
        </mxCell>
        <mxCell id="gx_fRitQp8oqiLDrhO29-103" value="StorageService" style="swimlane;fontStyle=2;align=center;verticalAlign=top;childLayout=stackLayout;horizontal=1;startSize=26;horizontalStack=0;resizeParent=1;resizeLast=0;collapsible=1;marginBottom=0;rounded=0;shadow=0;strokeWidth=1;" vertex="1" parent="WIyWlLk6GJQsqaUBKTNV-1">
          <mxGeometry x="630" y="910" width="395" height="164" as="geometry">
            <mxRectangle x="230" y="140" width="160" height="26" as="alternateBounds" />
          </mxGeometry>
        </mxCell>
        <mxCell id="gx_fRitQp8oqiLDrhO29-104" value="storage: StorageFacade" style="text;align=left;verticalAlign=top;spacingLeft=4;spacingRight=4;overflow=hidden;rotatable=0;points=[[0,0.5],[1,0.5]];portConstraint=eastwest;rounded=0;shadow=0;html=0;" vertex="1" parent="gx_fRitQp8oqiLDrhO29-103">
          <mxGeometry y="26" width="395" height="26" as="geometry" />
        </mxCell>
        <mxCell id="gx_fRitQp8oqiLDrhO29-106" value="" style="line;html=1;strokeWidth=1;align=left;verticalAlign=middle;spacingTop=-1;spacingLeft=3;spacingRight=3;rotatable=0;labelPosition=right;points=[];portConstraint=eastwest;" vertex="1" parent="gx_fRitQp8oqiLDrhO29-103">
          <mxGeometry y="52" width="395" height="8" as="geometry" />
        </mxCell>
        <mxCell id="gx_fRitQp8oqiLDrhO29-111" value="Storage-User interaction functions" style="text;align=left;verticalAlign=top;spacingLeft=4;spacingRight=4;overflow=hidden;rotatable=0;points=[[0,0.5],[1,0.5]];portConstraint=eastwest;rounded=0;shadow=0;html=0;" vertex="1" parent="gx_fRitQp8oqiLDrhO29-103">
          <mxGeometry y="60" width="395" height="26" as="geometry" />
        </mxCell>
        <mxCell id="gx_fRitQp8oqiLDrhO29-107" value="" style="ellipse;shape=cloud;whiteSpace=wrap;html=1;" vertex="1" parent="WIyWlLk6GJQsqaUBKTNV-1">
          <mxGeometry x="190" y="180" width="800" height="340" as="geometry" />
        </mxCell>
        <mxCell id="gx_fRitQp8oqiLDrhO29-108" value="&lt;h1&gt;&lt;font face=&quot;Verdana&quot; size=&quot;1&quot; style=&quot;&quot;&gt;&lt;u style=&quot;font-size: 40px;&quot;&gt;Presentation Layer&lt;/u&gt;&lt;/font&gt;&lt;/h1&gt;" style="text;html=1;align=center;verticalAlign=middle;whiteSpace=wrap;rounded=0;" vertex="1" parent="WIyWlLk6GJQsqaUBKTNV-1">
          <mxGeometry x="350" y="310" width="490" height="40" as="geometry" />
        </mxCell>
        <mxCell id="gx_fRitQp8oqiLDrhO29-109" style="edgeStyle=orthogonalEdgeStyle;rounded=0;orthogonalLoop=1;jettySize=auto;html=1;exitX=0.55;exitY=0.95;exitDx=0;exitDy=0;exitPerimeter=0;entryX=0;entryY=0;entryDx=535;entryDy=0;entryPerimeter=0;" edge="1" parent="WIyWlLk6GJQsqaUBKTNV-1" source="gx_fRitQp8oqiLDrhO29-107" target="gx_fRitQp8oqiLDrhO29-69">
          <mxGeometry relative="1" as="geometry" />
        </mxCell>
        <mxCell id="gx_fRitQp8oqiLDrhO29-110" style="edgeStyle=orthogonalEdgeStyle;rounded=0;orthogonalLoop=1;jettySize=auto;html=1;exitX=0;exitY=0;exitDx=545;exitDy=530;exitPerimeter=0;entryX=0;entryY=0;entryDx=725;entryDy=0;entryPerimeter=0;" edge="1" parent="WIyWlLk6GJQsqaUBKTNV-1" source="gx_fRitQp8oqiLDrhO29-69" target="gx_fRitQp8oqiLDrhO29-1">
          <mxGeometry relative="1" as="geometry" />
        </mxCell>
        <mxCell id="gx_fRitQp8oqiLDrhO29-122" value="StorageInit" style="swimlane;fontStyle=2;align=center;verticalAlign=top;childLayout=stackLayout;horizontal=1;startSize=26;horizontalStack=0;resizeParent=1;resizeLast=0;collapsible=1;marginBottom=0;rounded=0;shadow=0;strokeWidth=1;" vertex="1" parent="WIyWlLk6GJQsqaUBKTNV-1">
          <mxGeometry x="1130" y="880" width="230" height="120" as="geometry">
            <mxRectangle x="230" y="140" width="160" height="26" as="alternateBounds" />
          </mxGeometry>
        </mxCell>
        <mxCell id="gx_fRitQp8oqiLDrhO29-123" value="Initial storage data (will be implemented&#xa;within data layer)" style="text;align=left;verticalAlign=top;spacingLeft=4;spacingRight=4;overflow=hidden;rotatable=0;points=[[0,0.5],[1,0.5]];portConstraint=eastwest;rounded=0;shadow=0;html=0;" vertex="1" parent="gx_fRitQp8oqiLDrhO29-122">
          <mxGeometry y="26" width="230" height="44" as="geometry" />
        </mxCell>
      </root>
    </mxGraphModel>
  </diagram>
</mxfile>
